<?xml version="1.0" standalone="no"?>
<!DOCTYPE svg PUBLIC "-//W3C//DTD SVG 20010904//EN"
 "http://www.w3.org/TR/2001/REC-SVG-20010904/DTD/svg10.dtd">
<svg version="1.0" xmlns="http://www.w3.org/2000/svg"
 width="1440.000000pt" height="1025.000000pt" viewBox="0 0 1440.000000 1025.000000"
 preserveAspectRatio="xMidYMid meet">

<g transform="translate(0.000000,1025.000000) scale(0.100000,-0.100000)"
fill="#000000" stroke="none">
<path d="M1140 9985 c-318 -64 -573 -298 -660 -605 -32 -113 -37 -279 -12
-401 35 -169 130 -340 249 -449 204 -188 457 -262 729 -215 179 32 336 117
466 253 127 133 204 292 230 471 23 166 -23 389 -113 543 -54 92 -175 219
-267 279 -179 118 -418 165 -622 124z m191 -208 c47 -74 129 -255 129 -282 0
-3 -72 -5 -161 -5 l-160 0 6 23 c28 92 136 307 154 307 3 0 18 -19 32 -43z
m-281 -47 c-17 -33 -44 -100 -60 -148 l-29 -87 -127 -3 -127 -3 28 38 c81 109
174 189 270 235 33 15 63 28 68 28 4 0 -6 -27 -23 -60z m557 24 c80 -40 194
-138 243 -210 17 -23 30 -45 30 -49 0 -3 -55 -4 -121 -3 l-121 3 -37 105 c-21
58 -47 124 -59 148 -13 23 -19 42 -15 42 3 0 40 -16 80 -36z m-682 -604 l0
-170 -142 0 -142 0 -8 38 c-4 20 -8 80 -8 132 0 52 4 112 8 133 l8 37 142 0
142 0 0 -170z m579 133 c3 -21 6 -81 6 -133 0 -52 -3 -112 -6 -132 l-7 -38
-197 0 -197 0 -7 31 c-3 17 -6 80 -6 139 0 59 3 122 6 139 l7 31 197 0 197 0
7 -37z m465 -26 c6 -35 11 -83 11 -107 0 -24 -5 -72 -11 -107 l-11 -63 -142 0
-141 0 0 170 0 170 141 0 142 0 11 -63z m-979 -539 c16 -48 43 -115 60 -149
31 -60 31 -61 8 -54 -104 32 -246 146 -327 263 l-23 33 127 -3 126 -3 29 -87z
m465 70 c-25 -82 -138 -308 -154 -308 -21 0 -161 284 -161 327 0 1 72 3 161 3
l160 0 -6 -22z m425 13 c0 -17 -76 -106 -139 -163 -51 -46 -188 -128 -214
-128 -3 0 9 33 28 73 18 39 43 101 55 137 11 36 23 71 25 78 5 14 245 18 245
3z"/>
<path d="M3160 9140 l0 -360 95 0 95 0 0 360 0 360 -95 0 -95 0 0 -360z m124
283 c0 -13 -1 -149 -2 -303 l-2 -280 -30 0 -30 0 0 306 0 305 33 -3 c26 -2 32
-7 31 -25z"/>
<path d="M3970 9140 l0 -360 73 0 c40 0 77 4 83 10 6 6 24 4 49 -5 151 -54
270 27 294 199 17 121 -13 230 -79 290 -44 40 -85 50 -170 44 l-60 -4 0 93 0
93 -95 0 -95 0 0 -360z m123 303 c2 -5 1 -63 -2 -131 -6 -114 -5 -122 13 -122
13 0 16 -5 11 -17 -30 -75 -31 -184 0 -243 15 -28 14 -30 -4 -30 -12 0 -23
-11 -30 -30 -7 -20 -17 -30 -30 -30 -21 0 -21 4 -21 305 l0 305 29 0 c17 0 32
-3 34 -7z m240 -196 c12 -8 33 -36 47 -63 35 -70 35 -198 0 -268 -28 -55 -51
-74 -95 -76 -61 -4 -81 1 -110 26 -16 14 -24 22 -17 19 24 -13 93 -7 118 9 82
55 82 285 -1 316 -15 6 -45 10 -67 10 -36 0 -39 2 -27 16 30 36 106 42 152 11z
m-98 -93 c64 -25 56 -214 -9 -214 -50 0 -71 45 -64 135 6 74 27 96 73 79z"/>
<path d="M5050 9140 l0 -360 95 0 95 0 0 360 0 360 -95 0 -95 0 0 -360z m124
283 c0 -13 -1 -149 -2 -303 l-2 -280 -30 0 -30 0 0 306 0 305 33 -3 c26 -2 32
-7 31 -25z"/>
<path d="M6120 9400 l0 -100 -26 10 c-42 16 -124 12 -168 -10 -46 -22 -90 -82
-107 -144 -6 -22 -9 -81 -7 -131 4 -111 31 -174 96 -219 54 -39 140 -47 197
-20 28 13 40 15 43 6 2 -8 31 -12 88 -12 l84 0 0 283 c0 156 -3 318 -6 360
l-7 77 -93 0 -94 0 0 -100z m130 -255 l0 -305 -24 0 c-17 0 -27 9 -36 30 -7
17 -19 30 -26 30 -12 0 -12 6 2 32 24 46 30 174 11 220 -12 30 -13 37 -2 42
10 3 12 32 8 130 l-6 126 37 0 36 0 0 -305z m-170 107 c47 -26 47 -38 0 -34
-55 6 -95 -13 -122 -57 -33 -52 -33 -180 -1 -232 28 -45 63 -61 114 -53 56 9
50 -12 -8 -29 -77 -23 -141 6 -177 78 -25 50 -26 182 -2 240 39 93 118 128
196 87z m24 -118 c22 -21 29 -57 24 -114 -6 -61 -21 -80 -63 -80 -28 0 -35 5
-50 36 -20 42 -17 132 4 158 17 21 65 20 85 0z"/>
<path d="M6405 9475 c-16 -15 -25 -36 -25 -55 0 -35 23 -86 42 -93 7 -3 3 -6
-9 -6 l-23 -1 0 -270 0 -270 95 0 95 0 0 270 0 270 -22 0 -21 0 21 23 c32 34
30 100 -3 132 -19 20 -34 25 -75 25 -41 0 -56 -5 -75 -25z m113 -59 c5 -22
-13 -36 -46 -36 -25 0 -38 21 -28 46 9 23 70 15 74 -10z m-2 -187 c-3 -17 -6
-112 -6 -210 l0 -179 -30 0 -30 0 0 210 0 210 36 0 c36 0 36 -1 30 -31z"/>
<path d="M2733 9456 c-87 -28 -157 -89 -195 -171 -20 -43 -23 -66 -23 -170 0
-101 4 -127 21 -166 35 -76 86 -124 164 -155 63 -24 77 -26 167 -22 54 3 124
13 156 22 l57 17 0 190 0 189 -155 0 -155 0 0 -85 0 -85 54 0 c52 0 54 -1 60
-31 8 -41 2 -49 -42 -49 -84 0 -132 62 -132 169 0 84 26 139 79 169 49 28 90
28 168 0 35 -12 65 -19 68 -17 7 8 55 142 55 155 0 6 -33 21 -72 33 -84 24
-208 27 -275 7z m262 -63 c11 -7 11 -11 0 -26 -12 -17 -19 -18 -64 -8 -92 20
-185 -10 -240 -76 -41 -50 -54 -101 -49 -194 6 -98 40 -162 100 -189 41 -18
170 -22 196 -6 8 5 12 40 12 97 l0 89 -60 0 c-57 0 -60 1 -60 25 0 25 0 25 96
25 l97 0 -7 -31 c-3 -17 -6 -78 -6 -135 l0 -103 -38 -11 c-54 -14 -178 -14
-234 0 -29 8 -65 28 -93 52 -55 48 -75 107 -75 218 0 175 78 268 241 289 55 7
160 -3 184 -16z"/>
<path d="M5550 9120 l0 -340 100 0 100 0 0 340 0 340 -100 0 -100 0 0 -340z
m134 268 c0 -10 -1 -137 -2 -283 l-2 -265 -35 0 -35 0 0 278 c0 153 3 282 7
286 4 4 21 6 38 4 21 -2 30 -8 29 -20z"/>
<path d="M4663 9319 c-43 -8 -133 -44 -133 -53 0 -2 14 -34 30 -71 25 -55 33
-66 48 -60 9 4 45 15 80 23 58 15 64 15 79 -1 16 -16 15 -17 -25 -17 -78 0
-162 -31 -209 -76 -42 -40 -43 -42 -43 -108 0 -55 5 -73 26 -106 50 -75 173
-104 259 -60 34 17 40 18 48 5 6 -11 27 -15 82 -15 l75 0 0 193 c0 164 -3 198
-19 232 -45 100 -156 143 -298 114z m182 -70 c55 -27 65 -66 65 -246 0 -137
-2 -163 -15 -163 -8 0 -21 14 -30 30 -9 17 -22 30 -30 30 -18 0 -18 8 0 40 8
14 14 47 15 74 l0 49 -78 -5 c-84 -5 -121 -22 -141 -66 -39 -83 30 -149 122
-117 52 18 59 12 16 -14 -63 -38 -182 -22 -209 28 -13 25 -13 82 0 116 15 39
80 63 193 71 l97 7 0 38 c0 85 -42 117 -138 104 -89 -12 -97 -11 -97 5 0 36
168 49 230 19z m-70 -276 c-8 -35 -7 -33 -44 -39 -22 -4 -33 -1 -37 11 -8 21
12 43 44 48 15 2 31 5 36 6 4 0 5 -11 1 -26z"/>
<path d="M8185 9316 c-27 -7 -67 -21 -87 -30 l-37 -16 32 -70 c23 -53 35 -69
47 -65 45 18 133 35 150 30 33 -10 23 -25 -17 -25 -52 0 -135 -24 -178 -50
-48 -30 -65 -67 -65 -143 0 -79 25 -121 90 -155 37 -20 56 -23 111 -19 39 2
76 11 92 22 24 16 27 16 33 1 5 -13 21 -16 80 -16 l74 0 0 195 c0 204 -6 242
-48 288 -49 55 -179 80 -277 53z m173 -61 c79 -24 86 -43 90 -247 4 -162 3
-168 -16 -168 -12 0 -24 11 -32 30 -8 18 -20 30 -31 30 -20 0 -26 15 -10 24
14 9 31 90 24 115 -6 22 -9 23 -79 19 -81 -5 -115 -22 -139 -69 -24 -45 -5
-96 42 -116 31 -12 41 -12 82 1 l46 16 -28 -25 c-37 -33 -124 -37 -179 -9 -48
25 -59 121 -19 168 26 31 71 44 174 52 l97 7 0 46 c0 87 -50 115 -164 92 -48
-10 -60 -10 -67 1 -12 18 1 27 52 37 67 13 101 12 157 -4z m-38 -260 c0 -4 -7
-20 -16 -36 -13 -25 -20 -30 -46 -27 -54 5 -45 44 13 58 45 11 49 11 49 5z"/>
<path d="M3566 9313 c-35 -9 -93 -51 -116 -83 -31 -44 -50 -113 -50 -185 0
-120 49 -204 147 -251 51 -24 65 -26 134 -21 85 6 119 20 165 69 51 53 67 95
72 185 4 69 1 92 -17 136 -25 62 -79 118 -135 141 -37 15 -155 20 -200 9z
m187 -70 c39 -20 52 -35 78 -91 43 -91 16 -236 -53 -286 -31 -22 -106 -34
-160 -25 -53 8 -118 57 -139 104 -28 60 -26 169 4 226 34 64 111 103 185 95
30 -4 68 -14 85 -23z"/>
<path d="M3593 9200 c-47 -28 -63 -67 -63 -150 0 -118 40 -176 121 -173 55 3
98 29 116 70 19 47 23 163 6 206 -26 64 -115 87 -180 47z m100 -60 c14 -11 29
-34 32 -51 9 -41 -3 -115 -21 -134 -23 -23 -71 -19 -88 8 -43 68 -17 197 40
197 6 0 23 -9 37 -20z"/>
<path d="M6785 9309 c-43 -12 -102 -65 -127 -112 -16 -31 -23 -66 -26 -133 -4
-77 -1 -98 18 -142 52 -122 182 -177 328 -140 65 16 135 87 156 159 45 150
-10 302 -129 358 -48 23 -160 28 -220 10z m195 -64 c94 -49 129 -203 73 -316
-36 -69 -71 -90 -156 -90 -95 -1 -169 42 -197 116 -7 17 -12 62 -12 102 0 99
26 147 102 186 47 25 63 28 108 23 30 -4 67 -13 82 -21z"/>
<path d="M6834 9210 c-54 -22 -90 -111 -79 -194 12 -94 55 -140 126 -138 98 4
133 57 127 194 -3 87 -4 91 -36 119 -25 23 -41 29 -75 28 -23 0 -52 -4 -63 -9z
m90 -71 c23 -18 26 -27 26 -88 0 -82 -17 -111 -64 -111 -44 0 -61 33 -61 117
0 56 3 67 24 84 30 24 42 24 75 -2z"/>
<path d="M7200 9050 l0 -270 94 0 94 0 4 171 c3 166 4 171 27 190 59 48 71 15
71 -197 l0 -164 99 0 100 0 3 176 c3 160 5 177 22 190 23 16 35 17 56 4 12 -7
16 -43 18 -190 l3 -180 101 0 100 0 -3 198 c-4 187 -5 200 -29 246 -39 77 -65
91 -170 91 -76 0 -93 -3 -119 -23 l-31 -23 -31 23 c-40 30 -161 38 -210 14
-40 -20 -49 -20 -49 -1 0 12 -15 15 -75 15 l-75 0 0 -270z m355 206 c19 -8 40
-26 47 -40 6 -15 19 -26 30 -26 22 0 22 1 3 -43 -11 -26 -15 -74 -15 -172 l0
-135 -35 0 -35 0 0 164 c0 161 0 163 -26 191 -24 26 -30 27 -84 22 -48 -4 -58
-2 -53 9 3 8 6 14 7 14 0 0 19 7 41 15 51 18 77 18 120 1z m287 3 c64 -17 72
-46 76 -246 l4 -173 -36 0 -36 0 0 158 c0 160 -6 187 -44 214 -19 13 -86 9
-117 -8 -29 -15 -30 -14 -20 4 15 28 37 44 74 52 46 11 57 11 99 -1z m-532
-34 c4 -21 11 -31 27 -33 22 -3 23 -4 6 -35 -14 -25 -18 -64 -21 -174 l-4
-143 -29 0 -29 0 0 211 0 210 22 -3 c17 -2 24 -12 28 -33z"/>
<path d="M8665 9307 c-75 -29 -105 -71 -105 -148 0 -81 25 -113 132 -169 48
-25 91 -50 95 -54 15 -17 -133 3 -180 23 l-48 21 3 -87 3 -86 55 -19 c70 -25
205 -21 263 7 81 38 115 125 83 210 -21 53 -50 80 -134 120 -34 17 -62 33 -62
36 0 9 66 -6 113 -26 l38 -16 15 38 c9 20 17 45 19 54 2 10 9 27 15 39 6 12
10 23 8 25 -2 2 -31 13 -65 24 -70 24 -197 28 -248 8z m217 -58 c25 -13 11
-42 -16 -34 -11 3 -44 8 -73 12 -118 13 -153 -90 -45 -133 131 -52 162 -79
162 -144 0 -40 -24 -86 -53 -102 -23 -13 -188 -15 -227 -3 -11 4 -20 15 -20
27 0 16 4 19 23 13 12 -3 54 -9 92 -12 62 -4 73 -2 98 17 37 29 36 70 -1 102
-16 12 -65 41 -110 63 -75 36 -83 43 -92 76 -17 64 14 111 86 128 42 10 148 4
176 -10z"/>
</g>
</svg>
